<svg width="175" height="53" viewBox="0 0 175 53" fill="none" xmlns="http://www.w3.org/2000/svg">
<path d="M76.5304 19.5945H76.7616V21.0975H80.4979V12.598C80.4979 10.5743 79.9193 9.0467 78.7596 8.01635C77.6011 6.986 75.9209 6.4702 73.7202 6.4702C71.1127 6.4702 69.0567 7.41418 67.5508 9.30336L70.3029 11.1827C71.2104 10.0845 72.3206 9.53534 73.6337 9.53534C74.5214 9.53534 75.2656 9.7809 75.864 10.272C76.4624 10.7631 76.7616 11.385 76.7616 12.1365V12.5696C76.3747 12.4154 75.8826 12.2661 75.2842 12.1217C74.6858 11.9773 73.923 11.9045 72.9957 11.9045C72.1649 11.9045 71.3971 12.0156 70.6936 12.2365C69.9889 12.4586 69.3756 12.7806 68.8539 13.2051C68.3322 13.6296 67.9266 14.1355 67.6373 14.7229C67.348 15.3115 67.2034 15.9704 67.2034 16.7034C67.2034 17.4363 67.3381 18.0718 67.6089 18.6691C67.8784 19.2663 68.2555 19.7771 68.7389 20.2016C69.2211 20.6261 69.7861 20.958 70.434 21.1987C71.0806 21.4393 71.7705 21.5602 72.5049 21.5602C73.489 21.5602 74.2951 21.3677 74.9232 20.9815C75.55 20.5965 76.0866 20.1338 76.5304 19.5945ZM74.734 18.3371C74.3087 18.521 73.8451 18.6123 73.3443 18.6123C72.7262 18.6123 72.1809 18.4383 71.7074 18.0916C71.2339 17.7448 70.9977 17.2821 70.9977 16.7034C70.9977 16.1247 71.2438 15.6385 71.7358 15.2436C72.2279 14.8487 72.9277 14.6513 73.8352 14.6513C74.3952 14.6513 74.9108 14.7142 75.3843 14.8389C75.8566 14.9647 76.3153 15.1326 76.7604 15.3448C76.7604 15.7693 76.6776 16.1789 76.5144 16.5738C76.3499 16.9687 76.1187 17.3154 75.8195 17.614C75.5203 17.9126 75.1581 18.1533 74.7328 18.3371H74.734ZM86.5795 33.0606C86.5795 33.0606 85.567 31.9575 84.8425 31.6009C84.118 31.2443 83.0164 31.0666 82.0322 31.0666C81.1828 31.0666 80.357 31.2381 79.5558 31.5824C78.7546 31.9254 78.045 32.4178 77.4268 33.0557C76.8086 33.6949 76.3067 34.4686 75.9209 35.3743C75.5339 36.2813 75.3411 37.2882 75.3411 38.3938C75.3411 39.4994 75.5339 40.5026 75.9209 41.3997C76.3067 42.2968 76.8086 43.0655 77.4268 43.7047C78.045 44.3439 78.7546 44.8363 79.5558 45.1793C80.357 45.5223 81.1828 45.6939 82.0322 45.6939C83.0176 45.6939 84.1192 45.5162 84.8425 45.1596C85.567 44.8029 86.5795 43.6998 86.5795 43.6998V44.682C86.5795 46.0406 86.2321 47.108 85.5373 47.8841C84.8425 48.659 83.8954 49.0477 82.6986 49.0477C81.9457 49.0477 81.2595 48.8404 80.6426 48.4258C80.0244 48.0112 79.5805 47.4288 79.3098 46.6773L75.6897 48.1223C75.864 48.6233 76.1435 49.1242 76.5292 49.6252C76.9149 50.1262 77.3984 50.584 77.977 50.9986C78.5568 51.4132 79.2368 51.7501 80.0194 52.0105C80.802 52.2708 81.6947 52.4004 82.6986 52.4004C83.8188 52.4004 84.8363 52.2215 85.7536 51.8661C86.671 51.5095 87.4574 50.9986 88.1139 50.3335C88.7704 49.6684 89.2822 48.8589 89.6494 47.9051C90.0154 46.9513 90.1996 45.8765 90.1996 44.682V31.5293H86.5795V33.0619V33.0606ZM86.2606 40.0547C86.0479 40.5372 85.7685 40.9444 85.4211 41.2751C85.0737 41.6058 84.6731 41.8563 84.2193 42.0266C83.7656 42.1968 83.3069 42.282 82.8433 42.282C82.3796 42.282 81.9259 42.1968 81.482 42.0266C81.0369 41.8563 80.6426 41.6058 80.2939 41.2751C79.9465 40.9444 79.6658 40.5372 79.4544 40.0547C79.2418 39.5722 79.1354 39.0182 79.1354 38.3938C79.1354 37.7694 79.2418 37.2166 79.4544 36.7341C79.6671 36.2516 79.9465 35.8395 80.2939 35.4989C80.6413 35.1584 81.0369 34.9029 81.482 34.7327C81.9259 34.5624 82.3796 34.4772 82.8433 34.4772C83.3069 34.4772 83.7656 34.5624 84.2193 34.7327C84.6731 34.9029 85.0737 35.1534 85.4211 35.4841C85.7685 35.8148 86.0479 36.227 86.2606 36.7181C86.4732 37.2104 86.5795 37.7682 86.5795 38.3926C86.5795 39.0169 86.4732 39.571 86.2606 40.0535V40.0547ZM61.5557 20.694C62.3766 20.425 63.095 20.0387 63.7131 19.5378C64.3313 19.0368 64.8184 18.4346 65.1757 17.7313C65.533 17.0279 65.7123 16.2332 65.7123 15.346C65.7123 14.1318 65.3884 13.115 64.7418 12.2957C64.0952 11.4763 63.2396 10.8742 62.1788 10.4892V10.2584C62.9701 9.87344 63.6315 9.30953 64.1632 8.56669C64.6936 7.82508 64.9594 6.90456 64.9594 5.80634C64.9594 5.05486 64.7949 4.35151 64.4673 3.69628C64.1384 3.04105 63.6896 2.46726 63.1209 1.97615C62.551 1.48503 61.8796 1.10004 61.1081 0.819935C60.3354 0.541061 59.5046 0.400391 58.6169 0.400391H50.5064V21.0975H58.9062C59.852 21.0975 60.736 20.963 61.5569 20.6927L61.5557 20.694ZM54.4182 3.89741H58.4438C59.2932 3.89741 59.9596 4.13803 60.443 4.62051C60.9252 5.10298 61.1675 5.68047 61.1675 6.35545C61.1675 7.03042 60.9214 7.61284 60.4294 8.10396C59.9373 8.59507 59.2363 8.84063 58.33 8.84063H54.4194V3.89741H54.4182ZM54.4182 17.5128V12.1933H58.6465C59.6888 12.1933 60.4764 12.4487 61.0067 12.9596C61.5371 13.4704 61.803 14.1108 61.803 14.8821C61.803 15.6533 61.5421 16.2838 61.0203 16.7749C60.4986 17.2661 59.7457 17.5116 58.7615 17.5116H54.417L54.4182 17.5128ZM73.2343 26.7453C73.6089 27.1118 73.7956 27.556 73.7956 28.0792C73.7956 28.6024 73.6077 29.0466 73.2343 29.4119C72.8597 29.7783 72.4109 29.961 71.8867 29.961C71.632 29.961 71.3884 29.9128 71.1572 29.8154C70.9248 29.7179 70.7233 29.5834 70.5514 29.4119C70.3796 29.2403 70.2448 29.0417 70.1471 28.8183C70.0495 28.5937 70.0012 28.3482 70.0012 28.0792C70.0012 27.8102 70.0495 27.5634 70.1471 27.34C70.2448 27.1155 70.3796 26.918 70.5514 26.7465C70.7233 26.575 70.9248 26.4405 71.1572 26.343C71.3897 26.2455 71.632 26.1974 71.8867 26.1974C72.4109 26.1974 72.8597 26.38 73.2343 26.7465V26.7453ZM70.0012 31.5281H73.7956V45.6926H70.0012V31.5281ZM65.5874 27.8706C64.6602 26.9551 63.54 26.2468 62.227 25.7458C60.914 25.2448 59.4366 24.9943 57.7959 24.9943H50.5076V45.6926H57.7959C59.4366 45.6926 60.914 45.4421 62.227 44.9411C63.54 44.4402 64.6602 43.7368 65.5874 42.8311C66.5147 41.9254 67.2244 40.837 67.7165 39.5648C68.2085 38.2926 68.4546 36.8859 68.4546 35.3447C68.4546 33.8035 68.2085 32.4252 67.7165 31.153C67.2244 29.8808 66.5147 28.7875 65.5874 27.8719V27.8706ZM64.11 38.0754C63.8207 38.8948 63.3855 39.5932 62.8069 40.1707C62.2283 40.7494 61.5038 41.1973 60.6346 41.5145C59.7654 41.8328 58.7615 41.992 57.6228 41.992H54.4182V28.6949H57.6228C58.7615 28.6949 59.7667 28.8541 60.6346 29.1712C61.5038 29.4896 62.2283 29.9375 62.8069 30.515C63.3855 31.0925 63.8207 31.7921 64.11 32.6115C64.3993 33.4308 64.544 34.3415 64.544 35.3435C64.544 36.3454 64.3993 37.2561 64.11 38.0754ZM144.57 6.93294H148.364V21.0975H144.57V6.93294ZM147.803 2.15014C148.177 2.51662 148.364 2.96084 148.364 3.48404C148.364 4.00723 148.176 4.45146 147.803 4.81671C147.428 5.18319 146.979 5.36582 146.455 5.36582C146.2 5.36582 145.957 5.31769 145.726 5.22021C145.493 5.12273 145.292 4.98823 145.12 4.81671C144.948 4.64519 144.813 4.44652 144.715 4.22318C144.618 3.9986 144.57 3.75304 144.57 3.48404C144.57 3.21504 144.618 2.96825 144.715 2.7449C144.813 2.52032 144.948 2.32289 145.12 2.15137C145.292 1.97985 145.493 1.84535 145.726 1.74787C145.958 1.65038 146.2 1.60226 146.455 1.60226C146.979 1.60226 147.428 1.78489 147.803 2.15137V2.15014ZM141.166 8.59507C140.568 7.92997 139.823 7.41048 138.936 7.03412C138.048 6.65776 137.034 6.4702 135.894 6.4702C134.754 6.4702 133.823 6.67257 132.926 7.07731C132.028 7.48204 131.25 8.02622 130.594 8.71106C129.937 9.39591 129.425 10.1955 129.058 11.1099C128.691 12.0255 128.508 12.9941 128.508 14.0146C128.508 15.1128 128.696 16.1209 129.073 17.0353C129.45 17.9509 129.976 18.7456 130.652 19.4205C131.328 20.0955 132.124 20.6199 133.042 20.9963C133.959 21.3727 134.958 21.5602 136.04 21.5602C137.642 21.5602 138.999 21.2036 140.109 20.4904C141.219 19.7772 142.102 18.843 142.76 17.6868L139.602 16.1259C139.273 16.7231 138.824 17.2204 138.256 17.614C137.686 18.0089 136.966 18.2063 136.098 18.2063C135.654 18.2063 135.219 18.1446 134.795 18.0188C134.37 17.8941 133.979 17.6918 133.622 17.4117C133.264 17.1328 132.965 16.786 132.724 16.3714C132.483 15.9568 132.323 15.4608 132.246 14.8833H142.934C142.934 14.7673 142.944 14.6624 142.962 14.5649C142.962 14.4687 142.972 14.3626 142.992 14.2466V13.8998C142.992 12.8399 142.837 11.8576 142.528 10.9507C142.219 10.045 141.766 9.26017 141.167 8.59507H141.166ZM132.447 12.1945C132.698 11.3665 133.132 10.7199 133.75 10.2572C134.368 9.79447 135.083 9.56372 135.894 9.56372C136.473 9.56372 136.97 9.6501 137.386 9.82409C137.802 9.99807 138.149 10.219 138.429 10.4892C138.708 10.7594 138.921 11.0482 139.067 11.3567C139.211 11.6651 139.293 11.9453 139.313 12.1945H132.448H132.447ZM159.961 7.04893L158.947 10.4312C158.716 10.3152 158.459 10.2239 158.179 10.156C157.899 10.0882 157.556 10.0548 157.151 10.0548C156.629 10.0548 156.155 10.1573 155.731 10.3596C155.306 10.5632 154.945 10.8483 154.645 11.2172C154.345 11.5849 154.113 12.0168 153.95 12.5104C153.785 13.004 153.704 13.542 153.704 14.1232V21.0975H149.909V6.93294H153.473V8.89862C153.473 8.89862 153.862 8.23352 154.153 7.94478C154.442 7.65603 154.766 7.40431 155.123 7.1896C155.48 6.97489 155.866 6.80214 156.282 6.66887C156.697 6.53684 157.355 6.4702 157.76 6.4702C158.262 6.4702 158.691 6.52326 159.05 6.63062C159.407 6.73797 159.711 6.87617 159.962 7.04769L159.961 7.04893ZM123.167 6.93294H126.961V21.0975H123.398V19.2478C123.398 19.2478 122.371 20.5249 121.618 20.9395C120.865 21.3541 119.758 21.5614 118.793 21.5614C116.998 21.5614 115.66 21.0123 114.781 19.9141C113.902 18.8159 113.463 17.3512 113.463 15.52V6.93294H117.257V15.0548C117.257 16.0765 117.483 16.8329 117.938 17.3241C118.392 17.8152 119.054 18.0607 119.923 18.0607C120.445 18.0607 120.902 17.9497 121.299 17.7288C121.695 17.5079 122.032 17.2081 122.313 16.8329C122.592 16.4578 122.805 16.0136 122.949 15.5027C123.094 14.9919 123.167 14.4477 123.167 13.869V6.93294ZM174.435 10.9803C174.058 10.0548 173.537 9.26017 172.871 8.59507C172.205 7.92997 171.413 7.41048 170.496 7.03412C169.579 6.65776 168.57 6.4702 167.469 6.4702C166.369 6.4702 165.359 6.65776 164.443 7.03412C163.525 7.41048 162.734 7.92997 162.068 8.59507C161.401 9.26017 160.881 10.0548 160.504 10.9803C160.128 11.9058 159.939 12.9176 159.939 14.0158C159.939 15.114 160.127 16.1259 160.504 17.0513C160.881 17.9768 161.401 18.7715 162.068 19.4366C162.734 20.1017 163.525 20.6212 164.443 20.9975C165.36 21.3739 166.369 21.5614 167.469 21.5614C168.57 21.5614 169.579 21.3739 170.496 20.9975C171.412 20.6212 172.205 20.1017 172.871 19.4366C173.537 18.7715 174.058 17.9768 174.435 17.0513C174.811 16.1259 175 15.114 175 14.0158C175 12.9176 174.812 11.9058 174.435 10.9803ZM170.901 15.7211C170.699 16.2221 170.423 16.6466 170.076 16.9934C169.728 17.3401 169.328 17.6054 168.874 17.788C168.42 17.9719 167.952 18.0632 167.469 18.0632C166.987 18.0632 166.494 17.9719 166.05 17.788C165.606 17.6054 165.211 17.3401 164.863 16.9934C164.516 16.6466 164.24 16.2234 164.037 15.7211C163.834 15.2202 163.733 14.6513 163.733 14.0158C163.733 13.3803 163.834 12.8115 164.037 12.3105C164.24 11.8095 164.516 11.385 164.863 11.0383C165.211 10.6916 165.606 10.4263 166.05 10.2436C166.494 10.061 166.967 9.96846 167.469 9.96846C167.971 9.96846 168.42 10.0598 168.874 10.2436C169.328 10.4275 169.728 10.6916 170.076 11.0383C170.423 11.385 170.699 11.8095 170.901 12.3105C171.104 12.8115 171.206 13.3803 171.206 14.0158C171.206 14.6513 171.104 15.2202 170.901 15.7211ZM95.2093 10.0413C95.4306 10.7829 95.5419 11.6071 95.5419 12.5129V21.0987H91.7475V12.9744C91.7475 11.9527 91.52 11.1962 91.0675 10.7051C90.6138 10.214 89.9523 9.96846 89.0832 9.96846C88.5614 9.96846 88.1027 10.0795 87.7071 10.3016C87.3115 10.5237 86.9727 10.8224 86.6933 11.1975C86.4126 11.5738 86.2012 12.0168 86.0566 12.5277C85.9119 13.0385 85.839 13.5827 85.839 14.1614V21.0999H82.0446V6.93294H85.6065V8.78263C85.6065 8.78263 86.6339 7.50672 87.3869 7.09088C88.1398 6.67627 89.2464 6.46897 90.2119 6.46897C91.0996 6.46897 91.8823 6.61334 92.5586 6.90209C93.2348 7.19083 93.79 7.6005 94.2239 8.1311C94.6579 8.6617 94.9868 9.29719 95.2081 10.0388L95.2093 10.0413ZM91.7475 31.5281H95.5419V45.6926H91.7475V31.5281ZM94.9806 26.7453C95.3552 27.1118 95.5419 27.556 95.5419 28.0792C95.5419 28.6024 95.354 29.0466 94.9806 29.4119C94.606 29.7783 94.1572 29.961 93.6329 29.961C93.3783 29.961 93.1347 29.9128 92.9035 29.8154C92.6711 29.7179 92.4695 29.5834 92.2977 29.4119C92.1258 29.2403 91.9911 29.0417 91.8934 28.8183C91.7957 28.5937 91.7475 28.3482 91.7475 28.0792C91.7475 27.8102 91.7957 27.5634 91.8934 27.34C91.9911 27.1155 92.1258 26.918 92.2977 26.7465C92.4695 26.575 92.6711 26.4405 92.9035 26.343C93.1359 26.2455 93.3783 26.1974 93.6329 26.1974C94.1572 26.1974 94.606 26.38 94.9806 26.7465V26.7453ZM123.166 24.9943H126.96V45.6926H123.166V24.9943ZM106.078 42.1944L107.15 45.5186C106.706 45.7309 106.228 45.8901 105.716 45.9962C105.204 46.1023 104.639 46.1554 104.021 46.1554C103.306 46.1554 102.665 46.0418 102.095 45.816C101.525 45.5902 101.047 45.2792 100.66 44.8868C99.7529 44.0021 99.2992 42.7422 99.2992 41.1097V34.766H97.0873V31.5281H99.2992V27.4782H103.094V31.5281H106.322V34.766H103.094V40.4261C103.094 40.7642 103.127 41.0764 103.195 41.3651C103.263 41.6527 103.393 41.8957 103.586 42.0956C103.855 42.414 104.242 42.572 104.744 42.572C105.072 42.572 105.333 42.5386 105.527 42.4708C105.72 42.4041 105.903 42.3116 106.077 42.1956L106.078 42.1944ZM119.821 32.6115C118.623 31.5811 116.886 31.0653 114.61 31.0653C111.915 31.0653 109.787 32.0093 108.231 33.8985L111.077 35.7778C112.015 34.6796 113.162 34.1305 114.521 34.1305C115.44 34.1305 116.209 34.376 116.828 34.8672C117.446 35.3583 117.757 35.9802 117.757 36.7317V37.1648C117.357 37.0105 116.848 36.8612 116.229 36.7169C115.609 36.5725 114.822 36.4997 113.862 36.4997C113.003 36.4997 112.209 36.6107 111.481 36.8316C110.752 37.0537 110.119 37.3758 109.578 37.8003C109.039 38.2247 108.62 38.7307 108.32 39.318C108.02 39.9066 107.871 40.5655 107.871 41.2985C107.871 42.0315 108.011 42.667 108.29 43.2642C108.569 43.8614 108.959 44.3723 109.458 44.7968C109.957 45.2212 110.541 45.5532 111.21 45.7938C111.879 46.0344 112.592 46.1554 113.352 46.1554C114.37 46.1554 115.204 45.9629 115.853 45.5766C116.502 45.1916 117.056 44.7289 117.516 44.1897H117.755V45.6926H121.619V37.1932C121.619 35.1695 121.019 33.6418 119.821 32.6115ZM117.5 41.1677C117.33 41.5626 117.09 41.9093 116.78 42.2079C116.47 42.5066 116.096 42.7472 115.657 42.931C115.218 43.1149 114.739 43.2062 114.22 43.2062C113.58 43.2062 113.017 43.0322 112.527 42.6855C112.037 42.3387 111.793 41.876 111.793 41.2973C111.793 40.7186 112.047 40.2324 112.557 39.8375C113.066 39.4426 113.789 39.2452 114.729 39.2452C115.308 39.2452 115.842 39.3081 116.331 39.4328C116.821 39.5586 117.294 39.7265 117.754 39.9387C117.754 40.3632 117.669 40.7729 117.5 41.1677ZM107.896 27.477H111.915V6.93294H108.119V8.63826C108.119 8.63826 107.314 7.53017 106.604 7.10569C105.891 6.68244 104.732 6.4702 103.685 6.4702C102.805 6.4702 101.967 6.65776 101.172 7.03412C100.377 7.41048 99.675 7.92997 99.0667 8.59507C98.4585 9.26017 97.9763 10.0548 97.6214 10.9803C97.2654 11.9058 97.0886 12.9176 97.0886 14.0158C97.0886 15.114 97.2666 16.1259 97.6214 17.0513C97.9763 17.9768 98.4585 18.7715 99.0667 19.4366C99.675 20.1017 100.376 20.6212 101.172 20.9975C101.967 21.3739 102.805 21.5614 103.685 21.5614C104.733 21.5614 105.612 21.3492 106.323 20.926C107.034 20.5027 107.558 19.9919 107.894 19.3934V27.4795L107.896 27.477ZM107.811 15.7199C107.605 16.2209 107.334 16.6454 106.998 16.9921C106.662 17.3389 106.272 17.6042 105.833 17.7868C105.393 17.9706 104.931 18.062 104.444 18.062C103.957 18.062 103.494 17.9657 103.054 17.7732C102.614 17.5807 102.226 17.3105 101.889 16.9637C101.553 16.617 101.281 16.1938 101.076 15.6915C100.869 15.1905 100.767 14.6316 100.767 14.0146C100.767 13.3976 100.869 12.8399 101.076 12.3376C101.281 11.8367 101.553 11.4122 101.889 11.0654C102.226 10.7187 102.614 10.4485 103.054 10.256C103.494 10.0635 103.957 9.96723 104.444 9.96723C104.931 9.96723 105.393 10.0585 105.833 10.2424C106.273 10.4263 106.662 10.6903 106.998 11.0371C107.334 11.3838 107.606 11.8083 107.811 12.3093C108.017 12.8103 108.121 13.3791 108.121 14.0146C108.121 14.6501 108.018 15.2189 107.811 15.7199ZM36.0942 17.8867C36.543 16.5602 36.7853 15.14 36.7853 13.6641C36.7878 6.36285 30.836 0.422602 23.5192 0.422602H0V19.1059H27.5695C28.7094 19.1059 29.8123 19.2737 30.852 19.5859C29.1211 21.7169 26.4778 23.0817 23.5204 23.0817H0V45.7272H27.5695C35.9804 45.7272 42.8224 38.8985 42.8224 30.5039C42.8224 25.2596 40.1519 20.6261 36.0966 17.8867H36.0942ZM27.567 15.2806H3.8327V4.24785H23.5192C28.7218 4.24785 32.9538 8.47167 32.9538 13.6641C32.9538 14.5205 32.8389 15.3497 32.6237 16.1395C31.0412 15.5829 29.34 15.2806 27.5683 15.2806H27.567ZM27.567 41.9019H3.8327V26.9069H23.5192C27.9763 26.9069 31.9277 24.7019 34.3348 21.327C37.1562 23.4037 38.9885 26.744 38.9885 30.5039C38.9885 36.7884 33.865 41.9019 27.5683 41.9019H27.567Z" fill="#195cf2"/>
</svg>
